# xmcd CD database file generated by OrangeCD 4.3
#
# Track frame offsets:
#	180
#	12043
#	26084
#	36141
#	46488
#	56841
#	70858
#	84998
#	96774
#	107702
#	118642
#	130519
#	142937
#	154754
#	163263
#	173026
#	184037
#	195442
#	207313
#	219132
#	230306
#	245859
#	259303
#	270858
#	282864
#	295292
#	303668
#	313879
#
# Disc length: 4344 seconds
#
# Revision: 0
# Processed by: cddbd v1.4PL0 Copyright (c) Steve Scherf et al.
# Submitted via: OrangeCD 4.3
#
DISCID=8e10f61c
DTITLE=Various Artist - Chicken Shack Boogie Vol. V
DYEAR=1900
DGENRE=Blues
TTITLE0=Bobby "Mr. Blues" Merrill - I Ain't Mad At You
TTITLE1=Chuck Higgins - Come On And Blow Your Horn
TTITLE2=Eddie Bo - I'm Wise
TTITLE3=Five Keys - That's What Your Doing To Me
TTITLE4=Little Walkin' Willie - Don't Holler Baby
TTITLE5=The Sly Foxx - My Four Women
TTITLE6=Jimmy Wilson and The All Stars - Lemon Squeezer
TTITLE7=Lafayette Thomas - Cockroach Run
TTITLE8=Elmore James and His Broomdusters - Comin' Home
TTITLE9=Paul Gayten - Time Is Passing
TTITLE10=El Rays - Christine
TTITLE11=Wynonie Harris - Put It Back
TTITLE12=Bull Moose Jackson - Nosey Joe
TTITLE13=Marie and Rex - I Can't Sit Down
TTITLE14=Bobby Mitchell and The Toppers - 4x11=44
TTITLE15=Little Esther and Bobby Nunn - You Took My Love Too Fast
TTITLE16=Frankie Marshall - Why Oh Why
TTITLE17=Kid Thomas - Jivin' Mess
TTITLE18=Joe Tex - Just You And Me
TTITLE19=The Flames - Cry For My Baby
TTITLE20=Frankie Lee Sims - Walkin' With Frankie
TTITLE21=Chuck Edwards - Just For A Day
TTITLE22=Jack Dupree - Rub A Little Boogie
TTITLE23=Tiny Bradshaw - Well Oh Well
TTITLE24=The Ramblers - 50-50 Love
TTITLE25=Hal Paige and The Wailers - Sugar Babe
TTITLE26=Elmon Mickle - Lonesome Highway
TTITLE27=The 4 Jacks - Last Of The Good Rocking Men
EXTD=
EXTT0=
EXTT1=
EXTT2=
EXTT3=
EXTT4=
EXTT5=
EXTT6=
EXTT7=
EXTT8=
EXTT9=
EXTT10=
EXTT11=
EXTT12=
EXTT13=
EXTT14=
EXTT15=
EXTT16=
EXTT17=
EXTT18=
EXTT19=
EXTT20=
EXTT21=
EXTT22=
EXTT23=
EXTT24=
EXTT25=
EXTT26=
EXTT27=
PLAYORDER=
